<svg width="30" height="30" viewBox="0 0 30 30" fill="none" xmlns="http://www.w3.org/2000/svg">
<g filter="url(#filter0_d_66_159)">
<path fill-rule="evenodd" clip-rule="evenodd" d="M10.7006 0.0782851C12.7422 0.0782851 14.3994 2.55167 14.3994 5.60056C14.3994 8.64944 12.7422 11.1228 10.7006 11.1228C8.65892 11.1228 7.00171 8.65156 7.00171 5.60056C7.00388 2.55167 8.65892 0.0782851 10.7006 0.0782851ZM14.6731 16.1288H16.1001C16.3673 16.1288 16.5845 16.3404 16.5845 16.6007V18.2193H18.246C18.5132 18.2193 18.7304 18.4308 18.7304 18.6911V20.0812C18.7304 20.3414 18.5132 20.553 18.246 20.553H16.5845V22.1716C16.5845 22.4319 16.3673 22.6434 16.1001 22.6434H14.6731C14.406 22.6434 14.1888 22.4297 14.1888 22.1716V20.553H12.5272C12.2601 20.553 12.0429 20.3414 12.0429 20.0812V18.6911C12.0429 18.4308 12.2601 18.2193 12.5272 18.2193H14.1888V16.6007C14.1888 16.3425 14.406 16.1288 14.6731 16.1288ZM15.4029 13.446C19.7338 13.4545 20.2725 16.2494 23.9236 21.0333C25.7437 24.5138 23.3806 26.7079 19.3298 25.7685C17.4923 24.8566 16.2 24.535 14.9033 24.5773C12.6575 24.6535 12.0906 26.0964 9.47776 25.9949C7.46216 25.942 6.55428 25.1189 6.37835 23.8643C6.18939 22.5313 6.71718 21.6892 7.36008 20.5869C9.85785 16.296 12.4403 12.9086 15.4029 13.446ZM3.55696 8.2686C2.03006 8.8568 1.54354 11.1821 2.4688 13.4608C3.39406 15.7395 5.38141 17.1106 6.90831 16.5224C8.43521 15.9342 8.92173 13.6089 7.99647 11.3302C7.07121 9.05145 5.08385 7.6804 3.55696 8.2686ZM26.443 8.2686C27.9699 8.8568 28.4565 11.1821 27.5312 13.4608C26.6059 15.7395 24.6164 17.1106 23.0917 16.5224C21.5648 15.9342 21.0783 13.6089 22.0035 11.3302C22.9288 9.05145 24.9161 7.6804 26.443 8.2686ZM19.2343 0C21.2759 0 22.9331 2.47339 22.9331 5.52227C22.9331 8.57116 21.2759 11.0445 19.2343 11.0445C17.1926 11.0445 15.5354 8.57328 15.5354 5.52227C15.5376 2.47339 17.1926 0 19.2343 0Z" fill="white"/>
</g>
<defs>
<filter id="filter0_d_66_159" x="0" y="0" width="30" height="30" filterUnits="userSpaceOnUse" color-interpolation-filters="sRGB">
<feFlood flood-opacity="0" result="BackgroundImageFix"/>
<feColorMatrix in="SourceAlpha" type="matrix" values="0 0 0 0 0 0 0 0 0 0 0 0 0 0 0 0 0 0 127 0" result="hardAlpha"/>
<feOffset dy="2"/>
<feGaussianBlur stdDeviation="1"/>
<feComposite in2="hardAlpha" operator="out"/>
<feColorMatrix type="matrix" values="0 0 0 0 1 0 0 0 0 1 0 0 0 0 1 0 0 0 0.1 0"/>
<feBlend mode="normal" in2="BackgroundImageFix" result="effect1_dropShadow_66_159"/>
<feBlend mode="normal" in="SourceGraphic" in2="effect1_dropShadow_66_159" result="shape"/>
</filter>
</defs>
</svg>
