<svg width="22" height="21" viewBox="0 0 22 21" fill="none" xmlns="http://www.w3.org/2000/svg">
<path d="M11.6241 3.85727C11.5034 3.9887 11.3826 4.12197 11.2335 4.28079L10.8233 4.72073L10.3971 4.29539C10.271 4.16943 10.1431 4.03982 10.0188 3.91386C8.70122 2.58123 7.70858 1.5772 5.66467 1.54982C5.58477 1.54799 5.49953 1.54982 5.41074 1.55347C4.26715 1.59545 3.21235 2.0281 2.44167 2.76743C1.68164 3.49764 1.19686 4.53271 1.18088 5.79231C1.1791 5.87081 1.18088 5.95296 1.18443 6.04241C1.30696 9.56017 4.58146 12.6289 7.2966 15.1718C7.82045 15.6629 8.32299 16.1339 8.80422 16.6103L10.8037 18.591L13.3164 16.028C13.7213 15.6154 14.1794 15.1645 14.6696 14.6826C15.5024 13.8611 16.4293 12.9502 17.2924 12.0319C17.9121 11.3729 18.4999 10.7102 18.9989 10.0731C19.489 9.44882 19.8903 8.85552 20.1478 8.32613C20.5704 7.45718 20.7036 6.58824 20.613 5.77588C20.5242 4.97448 20.217 4.22602 19.7571 3.58709C19.2901 2.93903 18.6686 2.40233 17.9565 2.0354C17.1361 1.61553 16.1967 1.41655 15.236 1.52973C13.5792 1.72689 12.6967 2.68894 11.6241 3.85727ZM10.7913 2.99562C12.0166 1.66117 13.0341 0.567689 15.1011 0.324895C16.2944 0.184331 17.4628 0.42895 18.4803 0.954698C19.3593 1.40743 20.1265 2.06826 20.7018 2.86601C21.2825 3.67289 21.6714 4.62033 21.785 5.63897C21.9004 6.67221 21.7335 7.77299 21.199 8.8683C20.8971 9.48715 20.4497 10.1516 19.9152 10.8326C19.3913 11.5007 18.7804 12.1907 18.1394 12.8717C17.2604 13.8081 16.3263 14.7282 15.4846 15.557C14.9927 16.0408 14.5328 16.4935 14.1457 16.8878L11.2228 19.8689L10.8126 20.2869L10.3971 19.8762L7.98204 17.4847C7.53988 17.0484 7.02846 16.5683 6.49751 16.07C3.619 13.37 0.143837 10.1151 0.00355152 6.08439C0 5.98582 0 5.88359 0 5.77771C0.0213091 4.1603 0.649928 2.82402 1.63548 1.87841C2.61214 0.941919 3.93864 0.394265 5.36635 0.341325C5.46401 0.337674 5.56701 0.335848 5.67533 0.337674C8.1685 0.372359 9.30853 1.49505 10.7913 2.99562Z" fill="#231F20"/>
</svg>
