<svg width="12" height="11" viewBox="0 0 12 11" fill="none" xmlns="http://www.w3.org/2000/svg">
<path d="M6.78566 10.3322L4.86289 8.44914L2.88739 10.2859C2.84345 10.3352 2.78095 10.3654 2.71162 10.3654C2.57979 10.3654 2.47335 10.2558 2.47335 10.1201V6.10964L0.0740407 3.7611C-0.0216582 3.6676 -0.0245877 3.51277 0.0652521 3.41425C0.0955242 3.38107 0.133608 3.35895 0.173646 3.34689L11.6966 0.00905992C11.8235 -0.0271334 11.9544 0.0482693 11.9905 0.178967C12.0091 0.245322 11.9983 0.313687 11.9671 0.368982L7.1626 10.2638C7.104 10.3845 6.96143 10.4337 6.84425 10.3734C6.82179 10.3624 6.80226 10.3483 6.78566 10.3322ZM4.5172 8.11133L2.94989 6.57714V9.56912L4.5172 8.11133ZM2.74873 5.70347L10.2015 0.952096L0.704872 3.70279L2.74873 5.70347ZM11.1741 0.90786L3.10418 6.05133L6.88038 9.74908L11.1741 0.90786Z" fill="white"/>
</svg>
