<svg width="16" height="22" viewBox="0 0 16 22" fill="none" xmlns="http://www.w3.org/2000/svg">
<path fill-rule="evenodd" clip-rule="evenodd" d="M10.915 0C11.9207 0 12.9038 0.305356 13.7401 0.877455C14.5763 1.44955 15.2281 2.2627 15.6129 3.21406C15.9978 4.16543 16.0985 5.21228 15.9023 6.22225C15.7061 7.23221 15.2218 8.15992 14.5106 8.88807C13.7995 9.61621 12.8934 10.1121 11.907 10.313C10.9206 10.5139 9.8982 10.4108 8.96904 10.0167C8.03988 9.62263 7.24571 8.95529 6.68696 8.09909C6.12821 7.24288 5.82998 6.23626 5.82998 5.20651C5.82998 3.82566 6.36572 2.50136 7.31934 1.52495C8.27297 0.548541 9.56636 0 10.915 0ZM0.556118 3.51815H4.32441C4.23477 3.89197 4.17627 4.2729 4.14955 4.65685H1.11043V20.1886L6.48921 15.419C6.59065 15.3289 6.72041 15.2793 6.85467 15.2793C6.98894 15.2793 7.1187 15.3289 7.22014 15.419L12.6409 20.1976V11.9384C13.0217 11.8358 13.3932 11.6999 13.7513 11.532V21.4312C13.7515 21.5437 13.7191 21.6538 13.6581 21.7474C13.5971 21.841 13.5103 21.914 13.4087 21.957C13.3071 22 13.1953 22.011 13.0876 21.9888C12.9798 21.9666 12.8809 21.9121 12.8035 21.8322L6.85817 16.5935L0.912838 21.8609C0.801523 21.9592 0.656649 22.0081 0.510073 21.997C0.363496 21.986 0.227218 21.9157 0.131202 21.8018C0.0448119 21.6988 -0.00182876 21.567 5.49061e-05 21.4312V4.0875C5.49061e-05 3.9365 0.05864 3.79169 0.162922 3.68491C0.267204 3.57814 0.408641 3.51815 0.556118 3.51815ZM10.1736 3.01863C10.1723 2.91786 10.1914 2.81791 10.2295 2.725V2.71426C10.2878 2.57817 10.3831 2.46211 10.504 2.37989C10.6249 2.29768 10.7664 2.25278 10.9115 2.25054C11.0093 2.25016 11.1061 2.26964 11.1965 2.30784C11.2874 2.34652 11.37 2.40309 11.4396 2.47434C11.5095 2.54462 11.5648 2.62866 11.6022 2.72142V2.73395C11.6365 2.82227 11.6543 2.91641 11.6547 3.01147V4.55122H13.1532C13.3502 4.55316 13.5386 4.63416 13.6778 4.77681C13.7468 4.84749 13.8015 4.93146 13.8387 5.02389V5.03642C13.8718 5.12144 13.8901 5.21172 13.8929 5.30319V5.33542C13.8909 5.43064 13.8719 5.52468 13.8369 5.61293C13.7988 5.7063 13.7436 5.79137 13.6743 5.86359C13.6048 5.93369 13.5229 5.9896 13.433 6.02831H13.419C13.3334 6.06362 13.242 6.08185 13.1497 6.08202H11.6651V7.6164C11.6628 7.81763 11.5845 8.01012 11.4466 8.15352L11.4308 8.16784C11.3647 8.23145 11.2884 8.28293 11.2053 8.32003H11.1913C11.1055 8.35507 11.0143 8.37388 10.922 8.37553C10.8237 8.37502 10.7264 8.35558 10.6352 8.31824C10.5443 8.27956 10.4617 8.22299 10.3921 8.15173C10.3227 8.08139 10.268 7.99733 10.2313 7.90465C10.1933 7.81283 10.1731 7.71432 10.1718 7.61461V6.08739H8.66625C8.56791 6.08777 8.47046 6.0683 8.37948 6.0301H8.36724C8.18985 5.95068 8.04901 5.80455 7.9738 5.62188V5.60756C7.94095 5.51943 7.9232 5.42615 7.92134 5.33184C7.92224 5.23168 7.94182 5.13263 7.97904 5.04C8.03531 4.90033 8.13047 4.78071 8.25267 4.69602C8.37487 4.61133 8.5187 4.56533 8.66625 4.56375H10.1718V3.01863H10.1736Z" fill="#231F20"/>
</svg>
